# xmcd
#
# Track frame offsets:
#	150
#	14440
#	29957
#	42137
#	55208
#	67911
#	78198
#	91579
#	103409
#	116158
#	132548
#	146738
#	161429
#	174371
#	185796
#	195413
#	215143
#	229038
#	238857
#	250994
#
# Disc length: 3588
#
# Revision: 1
# Processed by: cddbd v1.5.1PL0 Copyright (c) Steve Scherf et al.
# Submitted via: CDex 1.50beta9
# Normalized: r0:TDELIM( - )
#
DISCID=230e0214
DTITLE=Various Artist - Il était une fois la Country 1
DYEAR=2003
DGENRE=Country
TTITLE0=Soggy Bottom Boys - I am a Man of Constant Sorroow (2000)
TTITLE1=Willie Nelson - Bloody Mary Morning (76)
TTITLE2=Charlie Rich - The Most Beautiful Girl (73)
TTITLE3=Dolly Parton - I Will Always Love You (82)
TTITLE4=Patsy CLine - I Fall To Pieces (61)
TTITLE5=Chet Atkins - Mr. Sandman (72)
TTITLE6=Loretta Lynn - Coal Miner's Daughter (70)
TTITLE7=Everly Brothers - I Walk The Line (63)
TTITLE8=Waylon Jennings - My Heroes Have always Been Cowboy (96)
TTITLE9=Tammy Wynette/ Mark Gray - Sometimes when We Touch (84)
TTITLE10=Randy Newman - Rednecks (74)
TTITLE11=The Bellamy Brothers - Let Your Love Flow (76)
TTITLE12=Kenny Rogers - Ruby (90)
TTITLE13=Crystal Gayle - Don't it make your brown Eyes Blue (77)
TTITLE14=Flatt and Scruggs - Foggy Mountain Breakdown (67)
TTITLE15=Gram Parsons - Return of the Grievous Angel (74)
TTITLE16=Emmylou Harris - Two More Bottles of Wines (78)
TTITLE17=Buffalo Springfield - A Child's Claim To Fame (67)
TTITLE18=The Byrdes - Full Circle (73)
TTITLE19=Gene Clark - The True One (74)
EXTD=YEAR: 2003
EXTT0=
EXTT1=
EXTT2=
EXTT3=
EXTT4=
EXTT5=
EXTT6=
EXTT7=
EXTT8=
EXTT9=
EXTT10=
EXTT11=
EXTT12=
EXTT13=
EXTT14=
EXTT15=
EXTT16=
EXTT17=
EXTT18=
EXTT19=
PLAYORDER=
